<?xml version="1.0" encoding="UTF-8" standalone="no"?><svg xmlns="http://www.w3.org/2000/svg" xmlns:xlink="http://www.w3.org/1999/xlink" contentStyleType="text/css" height="437px" preserveAspectRatio="none" style="width:579px;height:437px;background:#FFFFFF;" version="1.1" viewBox="0 0 579 437" width="579px" zoomAndPan="magnify"><defs/><g><g id="NORMAL"><rect fill="#F1F1F1" height="52.5938" rx="12.5" ry="12.5" style="stroke:#181818;stroke-width:0.5;" width="157" x="244" y="87"/><line style="stroke:#181818;stroke-width:0.5;" x1="244" x2="401" y1="113.2969" y2="113.2969"/><text fill="#000000" font-family="sans-serif" font-size="14" lengthAdjust="spacing" textLength="61" x="292" y="104.9951">NORMAL</text><text fill="#000000" font-family="sans-serif" font-size="14" lengthAdjust="spacing" textLength="137" x="249" y="131.292">display all channels</text></g><g id="LEFT_MIN"><rect fill="#F1F1F1" height="68.8906" rx="12.5" ry="12.5" style="stroke:#181818;stroke-width:0.5;" width="289" x="7" y="217"/><line style="stroke:#181818;stroke-width:0.5;" x1="7" x2="296" y1="243.2969" y2="243.2969"/><text fill="#000000" font-family="sans-serif" font-size="14" lengthAdjust="spacing" textLength="67" x="118" y="234.9951">LEFT_MIN</text><text fill="#000000" font-family="sans-serif" font-size="14" lengthAdjust="spacing" textLength="265" x="12" y="261.292">display only channels with its current</text><text fill="#000000" font-family="sans-serif" font-size="14" lengthAdjust="spacing" textLength="198" x="12" y="277.5889">value less than its minimum</text></g><g id="RIGHT_MAX"><rect fill="#F1F1F1" height="68.8906" rx="12.5" ry="12.5" style="stroke:#181818;stroke-width:0.5;" width="289" x="178" y="363"/><line style="stroke:#181818;stroke-width:0.5;" x1="178" x2="467" y1="389.2969" y2="389.2969"/><text fill="#000000" font-family="sans-serif" font-size="14" lengthAdjust="spacing" textLength="83" x="281" y="380.9951">RIGHT_MAX</text><text fill="#000000" font-family="sans-serif" font-size="14" lengthAdjust="spacing" textLength="265" x="183" y="407.292">display only channels with its current</text><text fill="#000000" font-family="sans-serif" font-size="14" lengthAdjust="spacing" textLength="228" x="183" y="423.5889">value greater than its maximum</text></g><ellipse cx="322.5" cy="16" fill="#222222" rx="10" ry="10" style="stroke:none;stroke-width:1.0;"/><!--MD5=[6c88221bfca1659323a0839ee3375e02]
link *start to NORMAL--><g id="link_*start_NORMAL"><path d="M322.5,26.157 C322.5,38.788 322.5,62.181 322.5,81.435 " fill="none" id="*start-to-NORMAL" style="stroke:#181818;stroke-width:1.0;"/><polygon fill="#181818" points="322.5,86.743,326.5,77.743,322.5,81.743,318.5,77.743,322.5,86.743" style="stroke:#181818;stroke-width:1.0;"/></g><!--MD5=[fe10ca0d6660672f5535ce7286edf0f5]
link NORMAL to LEFT_MIN--><g id="link_NORMAL_LEFT_MIN"><path d="M243.884,128.398 C199.669,137.99 150.736,152.211 137.5,170 C128.599,181.963 129.368,197.675 133.367,212.039 " fill="none" id="NORMAL-to-LEFT_MIN" style="stroke:#181818;stroke-width:1.0;"/><polygon fill="#181818" points="134.837,216.851,136.0316,207.0749,133.3755,212.0694,128.381,209.4132,134.837,216.851" style="stroke:#181818;stroke-width:1.0;"/><text fill="#000000" font-family="sans-serif" font-size="13" lengthAdjust="spacing" textLength="85" x="138.5" y="183.0669">LEFT pressed</text></g><!--MD5=[450cf98f5e39d3edf4c4541a8b88fd53]
link LEFT_MIN to NORMAL--><g id="link_LEFT_MIN_NORMAL"><path d="M193.862,216.808 C222.308,194.185 259.386,164.696 286.422,143.193 " fill="none" id="LEFT_MIN-to-NORMAL" style="stroke:#181818;stroke-width:1.0;"/><polygon fill="#181818" points="290.336,140.081,280.8016,142.55,286.4219,143.1923,285.7797,148.8125,290.336,140.081" style="stroke:#181818;stroke-width:1.0;"/><text fill="#000000" font-family="sans-serif" font-size="13" lengthAdjust="spacing" textLength="85" x="253.5" y="183.0669">LEFT pressed</text></g><!--MD5=[aa9a9cc940ddefaf97a2edcd34cc0819]
link RIGHT_MAX to LEFT_MIN--><g id="link_RIGHT_MAX_LEFT_MIN"><path d="M283.306,362.6531 C266.493,348.207 246.593,331.206 228.5,316 C218.312,307.438 207.306,298.298 196.89,289.697 " fill="none" id="RIGHT_MAX-to-LEFT_MIN" style="stroke:#181818;stroke-width:1.0;"/><polygon fill="#181818" points="192.777,286.303,197.1748,295.1155,196.6342,289.4845,202.2652,288.9439,192.777,286.303" style="stroke:#181818;stroke-width:1.0;"/><text fill="#000000" font-family="sans-serif" font-size="13" lengthAdjust="spacing" textLength="85" x="248.5" y="329.0669">LEFT pressed</text></g><!--MD5=[d9f1bdd910fdc22ea7f993761307f4c7]
link LEFT_MIN to RIGHT_MAX--><g id="link_LEFT_MIN_RIGHT_MAX"><path d="M126.858,286.397 C118.944,301.669 114.51,319.305 124.5,333 C136.954,350.0727 154.065,362.6578 173.053,371.9149 " fill="none" id="LEFT_MIN-to-RIGHT_MAX" style="stroke:#181818;stroke-width:1.0;"/><polygon fill="#181818" points="177.919,374.1974,171.4708,366.7529,173.3926,372.0733,168.0722,373.9951,177.919,374.1974" style="stroke:#181818;stroke-width:1.0;"/><text fill="#000000" font-family="sans-serif" font-size="13" lengthAdjust="spacing" textLength="94" x="125.5" y="329.0669">RIGHT pressed</text></g><!--MD5=[1a0a42412ec15142851a8ea6d2e7cf9c]
link NORMAL to RIGHT_MAX--><g id="link_NORMAL_RIGHT_MAX"><path d="M336.828,140.256 C341.151,149.368 345.325,159.875 347.5,170 C354.054,200.509 391.898,44.676 342.5,333 C341.094,341.2077 338.895,349.8251 336.461,357.9714 " fill="none" id="NORMAL-to-RIGHT_MAX" style="stroke:#181818;stroke-width:1.0;"/><polygon fill="#181818" points="334.92,362.9749,341.3919,355.5509,336.3917,358.1964,333.7462,353.1962,334.92,362.9749" style="stroke:#181818;stroke-width:1.0;"/><text fill="#000000" font-family="sans-serif" font-size="13" lengthAdjust="spacing" textLength="94" x="362.5" y="256.0669">RIGHT pressed</text></g><!--MD5=[68ade3b8e50b63b9e36b79acebef3232]
link RIGHT_MAX to NORMAL--><g id="link_RIGHT_MAX_NORMAL"><path d="M389.632,362.8141 C418.593,344.4195 449.458,318.669 465.5,286 C479.017,258.473 479.51,244.279 465.5,217 C448.608,184.11 415.719,159.407 385.738,142.501 " fill="none" id="RIGHT_MAX-to-NORMAL" style="stroke:#181818;stroke-width:1.0;"/><polygon fill="#181818" points="381.338,140.064,387.2729,147.9238,385.7119,142.4866,391.1491,140.9256,381.338,140.064" style="stroke:#181818;stroke-width:1.0;"/><text fill="#000000" font-family="sans-serif" font-size="13" lengthAdjust="spacing" textLength="94" x="477.5" y="256.0669">RIGHT pressed</text></g><!--MD5=[3b42994efe1fcab050105a82542b4f86]
@startuml
hide empty description

NORMAL: display all channels
LEFT_MIN: display only channels with its current \nvalue less than its minimum
RIGHT_MAX: display only channels with its current \nvalue greater than its maximum

[*] - -> NORMAL
NORMAL - -> LEFT_MIN: LEFT pressed
RIGHT_MAX- -> LEFT_MIN: LEFT pressed
LEFT_MIN - -> NORMAL: LEFT pressed

NORMAL - -> RIGHT_MAX: RIGHT pressed
LEFT_MIN - -> RIGHT_MAX: RIGHT pressed
RIGHT_MAX - -> NORMAL: RIGHT pressed
@enduml

PlantUML version 1.2022.4beta2(Unknown compile time)
(GPL source distribution)
Java Runtime: Java(TM) SE Runtime Environment
JVM: Java HotSpot(TM) 64-Bit Server VM
Default Encoding: UTF-8
Language: en
Country: US
--></g></svg>