<?xml version="1.0" encoding="UTF-8" standalone="no"?><svg xmlns="http://www.w3.org/2000/svg" xmlns:xlink="http://www.w3.org/1999/xlink" contentStyleType="text/css" height="424px" preserveAspectRatio="none" style="width:529px;height:424px;background:#FFFFFF;" version="1.1" viewBox="0 0 529 424" width="529px" zoomAndPan="magnify"><defs/><g><rect fill="#F1F1F1" height="40" rx="12.5" ry="12.5" style="stroke:#181818;stroke-width:0.5;" width="71" x="236.5" y="87"/><text fill="#000000" font-family="sans-serif" font-size="14" lengthAdjust="spacing" textLength="61" x="241.5" y="111.8467">NORMAL</text><g id="LEFT_MIN"><rect fill="#F1F1F1" height="68.8906" rx="12.5" ry="12.5" style="stroke:#181818;stroke-width:0.5;" width="222" x="7" y="204"/><line style="stroke:#181818;stroke-width:0.5;" x1="7" x2="229" y1="230.2969" y2="230.2969"/><text fill="#000000" font-family="sans-serif" font-size="14" lengthAdjust="spacing" textLength="67" x="84.5" y="221.9951">LEFT_MIN</text><text fill="#000000" font-family="sans-serif" font-size="14" lengthAdjust="spacing" textLength="198" x="12" y="248.292">display only channels with a</text><text fill="#000000" font-family="sans-serif" font-size="14" lengthAdjust="spacing" textLength="198" x="12" y="264.5889">value less than its minimum</text></g><g id="RIGHT_MAX"><rect fill="#F1F1F1" height="68.8906" rx="12.5" ry="12.5" style="stroke:#181818;stroke-width:0.5;" width="248" x="148" y="350"/><line style="stroke:#181818;stroke-width:0.5;" x1="148" x2="396" y1="376.2969" y2="376.2969"/><text fill="#000000" font-family="sans-serif" font-size="14" lengthAdjust="spacing" textLength="83" x="230.5" y="367.9951">RIGHT_MAX</text><text fill="#000000" font-family="sans-serif" font-size="14" lengthAdjust="spacing" textLength="198" x="153" y="394.292">display only channels with a</text><text fill="#000000" font-family="sans-serif" font-size="14" lengthAdjust="spacing" textLength="228" x="153" y="410.5889">value greater than its maximum</text></g><ellipse cx="272" cy="16" fill="#222222" rx="10" ry="10" style="stroke:none;stroke-width:1.0;"/><!--MD5=[6c88221bfca1659323a0839ee3375e02]
link *start to NORMAL--><g id="link_*start_NORMAL"><path d="M272,26.189 C272,39.18 272,63.376 272,81.734 " fill="none" id="*start-to-NORMAL" style="stroke:#181818;stroke-width:1.0;"/><polygon fill="#181818" points="272,86.743,276,77.743,272,81.743,268,77.743,272,86.743" style="stroke:#181818;stroke-width:1.0;"/></g><!--MD5=[fe10ca0d6660672f5535ce7286edf0f5]
link NORMAL to LEFT_MIN--><g id="link_NORMAL_LEFT_MIN"><path d="M236.374,112.292 C187.894,118.949 105.086,133.5 87,157 C77.3979,169.476 80.9094,185.281 88.3836,199.576 " fill="none" id="NORMAL-to-LEFT_MIN" style="stroke:#181818;stroke-width:1.0;"/><polygon fill="#181818" points="90.8203,203.959,89.9423,194.1494,88.3904,199.5892,82.9506,198.0372,90.8203,203.959" style="stroke:#181818;stroke-width:1.0;"/><text fill="#000000" font-family="sans-serif" font-size="13" lengthAdjust="spacing" textLength="85" x="88" y="170.0669">LEFT pressed</text></g><!--MD5=[450cf98f5e39d3edf4c4541a8b88fd53]
link LEFT_MIN to NORMAL--><g id="link_LEFT_MIN_NORMAL"><path d="M157.862,203.979 C185.334,180.878 221.098,150.804 245.213,130.526 " fill="none" id="LEFT_MIN-to-NORMAL" style="stroke:#181818;stroke-width:1.0;"/><polygon fill="#181818" points="249.277,127.108,239.8139,129.8373,245.4496,130.3253,244.9616,135.9611,249.277,127.108" style="stroke:#181818;stroke-width:1.0;"/><text fill="#000000" font-family="sans-serif" font-size="13" lengthAdjust="spacing" textLength="85" x="215" y="170.0669">LEFT pressed</text></g><!--MD5=[aa9a9cc940ddefaf97a2edcd34cc0819]
link RIGHT_MAX to LEFT_MIN--><g id="link_RIGHT_MAX_LEFT_MIN"><path d="M236.12,349.9499 C212.706,328.0567 182.115,299.451 157.93,276.838 " fill="none" id="RIGHT_MAX-to-LEFT_MIN" style="stroke:#181818;stroke-width:1.0;"/><polygon fill="#181818" points="154.106,273.262,157.9478,282.3307,157.7581,276.677,163.4118,276.4873,154.106,273.262" style="stroke:#181818;stroke-width:1.0;"/><text fill="#000000" font-family="sans-serif" font-size="13" lengthAdjust="spacing" textLength="85" x="201" y="316.0669">LEFT pressed</text></g><!--MD5=[d9f1bdd910fdc22ea7f993761307f4c7]
link LEFT_MIN to RIGHT_MAX--><g id="link_LEFT_MIN_RIGHT_MAX"><path d="M91.0387,273.105 C82.2313,288.315 76.992,305.984 87,320 C100.8166,339.3504 120.915,352.866 142.825,362.291 " fill="none" id="LEFT_MIN-to-RIGHT_MAX" style="stroke:#181818;stroke-width:1.0;"/><polygon fill="#181818" points="147.527,364.2407,140.7444,357.0995,142.908,362.3262,137.6813,364.4899,147.527,364.2407" style="stroke:#181818;stroke-width:1.0;"/><text fill="#000000" font-family="sans-serif" font-size="13" lengthAdjust="spacing" textLength="94" x="88" y="316.0669">RIGHT pressed</text></g><!--MD5=[1a0a42412ec15142851a8ea6d2e7cf9c]
link NORMAL to RIGHT_MAX--><g id="link_NORMAL_RIGHT_MAX"><path d="M288.743,127.105 C295.149,135.646 301.705,146.21 305,157 C324.594,221.172 303.986,299.226 287.683,344.933 " fill="none" id="NORMAL-to-RIGHT_MAX" style="stroke:#181818;stroke-width:1.0;"/><polygon fill="#181818" points="285.92,349.7983,292.7464,342.699,287.6231,345.0973,285.2248,339.974,285.92,349.7983" style="stroke:#181818;stroke-width:1.0;"/><text fill="#000000" font-family="sans-serif" font-size="13" lengthAdjust="spacing" textLength="94" x="313" y="243.0669">RIGHT pressed</text></g><!--MD5=[68ade3b8e50b63b9e36b79acebef3232]
link RIGHT_MAX to NORMAL--><g id="link_RIGHT_MAX_NORMAL"><path d="M339.59,349.9182 C368.751,331.5464 399.833,305.785 416,273 C429.563,245.496 430.47,231.038 416,204 C394.312,163.475 347.124,137.103 312.656,122.439 " fill="none" id="RIGHT_MAX-to-NORMAL" style="stroke:#181818;stroke-width:1.0;"/><polygon fill="#181818" points="307.667,120.361,314.4359,127.5151,312.2823,122.2843,317.5132,120.1307,307.667,120.361" style="stroke:#181818;stroke-width:1.0;"/><text fill="#000000" font-family="sans-serif" font-size="13" lengthAdjust="spacing" textLength="94" x="427" y="243.0669">RIGHT pressed</text></g><!--MD5=[0a706d416768d584f625a4cb56d90905]
@startuml
hide empty description

state NORMAL
LEFT_MIN: display only channels with a \nvalue less than its minimum
RIGHT_MAX: display only channels with a \nvalue greater than its maximum

[*] - -> NORMAL
NORMAL - -> LEFT_MIN: LEFT pressed
RIGHT_MAX- -> LEFT_MIN: LEFT pressed
LEFT_MIN - -> NORMAL: LEFT pressed

NORMAL - -> RIGHT_MAX: RIGHT pressed
LEFT_MIN - -> RIGHT_MAX: RIGHT pressed
RIGHT_MAX - -> NORMAL: RIGHT pressed
@enduml

PlantUML version 1.2022.4beta2(Unknown compile time)
(GPL source distribution)
Java Runtime: Java(TM) SE Runtime Environment
JVM: Java HotSpot(TM) 64-Bit Server VM
Default Encoding: UTF-8
Language: en
Country: US
--></g></svg>