<?xml version="1.0" encoding="UTF-8" standalone="no"?><svg xmlns="http://www.w3.org/2000/svg" xmlns:xlink= "http://www.w3.org/1999/xlink" width="600" height="390" aria-label="A chart." style="overflow: hidden;"><defs id="_ABSTRACT_RENDERER_ID_646"><clipPath id="_ABSTRACT_RENDERER_ID_647"><rect x="115" y="75" width="371" height="241"></rect></clipPath></defs><rect x="0" y="0" width="600" height="390" stroke="none" stroke-width="0" fill="#ffffff"></rect><g><text text-anchor="start" x="115" y="52.05" font-family="Arial" font-size="13" font-weight="bold" stroke="none" stroke-width="0" fill="#000000">RECENTS Memory Usage Comparison</text><rect x="115" y="41" width="371" height="13" stroke="none" stroke-width="0" fill-opacity="0" fill="#ffffff"></rect></g><g><rect x="499" y="75" width="88" height="34" stroke="none" stroke-width="0" fill-opacity="0" fill="#ffffff"></rect><g><rect x="499" y="75" width="88" height="13" stroke="none" stroke-width="0" fill-opacity="0" fill="#ffffff"></rect><g><text text-anchor="start" x="530" y="86.05" font-family="Arial" font-size="13" stroke="none" stroke-width="0" fill="#222222">Queue</text></g><path d="M499,81.5L525,81.5" stroke="#3366cc" stroke-width="3" fill-opacity="1" fill="none"></path><circle cx="512" cy="81.5" r="4.5" stroke="none" stroke-width="0" fill="#3366cc"></circle></g><g><rect x="499" y="96" width="88" height="13" stroke="none" stroke-width="0" fill-opacity="0" fill="#ffffff"></rect><g><text text-anchor="start" x="530" y="107.05" font-family="Arial" font-size="13" stroke="none" stroke-width="0" fill="#222222">Array</text></g><path d="M499,102.5L525,102.5" stroke="#dc3912" stroke-width="3" fill-opacity="1" fill="none"></path><circle cx="512" cy="102.5" r="4.5" stroke="none" stroke-width="0" fill="#dc3912"></circle></g></g><g><rect x="115" y="75" width="371" height="241" stroke="none" stroke-width="0" fill-opacity="0" fill="#ffffff"></rect><g clip-path="url(https://www.rapidtables.com/tools/line-graph.html#_ABSTRACT_RENDERER_ID_647)"><g><rect x="227" y="75" width="1" height="241" stroke="none" stroke-width="0" fill="#cccccc"></rect><rect x="344" y="75" width="1" height="241" stroke="none" stroke-width="0" fill="#cccccc"></rect><rect x="462" y="75" width="1" height="241" stroke="none" stroke-width="0" fill="#cccccc"></rect><rect x="109" y="75" width="1" height="241" stroke="none" stroke-width="0" fill="#ebebeb"></rect><rect x="168" y="75" width="1" height="241" stroke="none" stroke-width="0" fill="#ebebeb"></rect><rect x="285" y="75" width="1" height="241" stroke="none" stroke-width="0" fill="#ebebeb"></rect><rect x="403" y="75" width="1" height="241" stroke="none" stroke-width="0" fill="#ebebeb"></rect><rect x="520" y="75" width="1" height="241" stroke="none" stroke-width="0" fill="#ebebeb"></rect><rect x="115" y="315" width="371" height="1" stroke="none" stroke-width="0" fill="#cccccc"></rect><rect x="115" y="255" width="371" height="1" stroke="none" stroke-width="0" fill="#cccccc"></rect><rect x="115" y="195" width="371" height="1" stroke="none" stroke-width="0" fill="#cccccc"></rect><rect x="115" y="135" width="371" height="1" stroke="none" stroke-width="0" fill="#cccccc"></rect><rect x="115" y="75" width="371" height="1" stroke="none" stroke-width="0" fill="#cccccc"></rect><rect x="115" y="285" width="371" height="1" stroke="none" stroke-width="0" fill="#ebebeb"></rect><rect x="115" y="225" width="371" height="1" stroke="none" stroke-width="0" fill="#ebebeb"></rect><rect x="115" y="165" width="371" height="1" stroke="none" stroke-width="0" fill="#ebebeb"></rect><rect x="115" y="105" width="371" height="1" stroke="none" stroke-width="0" fill="#ebebeb"></rect></g><g><rect x="115" y="315" width="371" height="1" stroke="none" stroke-width="0" fill="#333333"></rect></g><g><path d="M115.5,312.5L121.37301587301587,309.5L127.24603174603175,306.5L133.11904761904762,303.5L138.9920634920635,300.5L144.86507936507937,297.5L150.73809523809524,294.5L156.61111111111111,291.5L162.484126984127,288.5L168.35714285714286,285.5L174.23015873015873,282.5L180.10317460317458,279.5L185.97619047619048,276.5L191.84920634920633,273.5L197.72222222222223,270.5L203.59523809523807,267.5L209.46825396825398,264.5L215.34126984126982,261.5L221.21428571428572,258.5L227.08730158730157,255.5L232.96031746031747,252.5L238.83333333333331,249.5L244.7063492063492,246.5L250.57936507936506,243.5L256.45238095238096,240.5L262.3253968253968,237.5L268.19841269841265,234.5L274.07142857142856,231.5L279.94444444444446,228.5L285.8174603174603,225.5L291.69047619047615,222.5L297.56349206349205,219.5L303.43650793650795,216.5L309.3095238095238,213.5L315.18253968253964,210.5L321.05555555555554,207.5L326.92857142857144,204.5L332.8015873015873,201.5L338.67460317460313,198.5L344.54761904761904,195.5L350.42063492063494,192.5L356.2936507936508,189.5L362.16666666666663,186.5L368.03968253968253,183.5L373.91269841269843,180.5L379.7857142857142,177.5L385.6587301587301,174.5L391.531746031746,171.5L397.4047619047619,168.5L403.2777777777777,165.5L409.1507936507936,162.5L415.0238095238095,159.5L420.8968253968254,156.5L426.7698412698412,153.5L432.6428571428571,150.5L438.515873015873,147.5L444.3888888888889,144.5L450.2619047619047,141.5L456.1349206349206,138.5L462.0079365079365,135.5L467.8809523809524,132.5L473.7539682539682,129.5L479.6269841269841,126.5L485.5,123.5" stroke="#3366cc" stroke-width="3" fill-opacity="1" fill="none"></path><path d="M115.5,277.1L121.37301587301587,277.1L127.24603174603175,277.1L133.11904761904762,277.1L138.9920634920635,277.1L144.86507936507937,277.1L150.73809523809524,277.1L156.61111111111111,277.1L162.484126984127,277.1L168.35714285714286,277.1L174.23015873015873,277.1L180.10317460317458,277.1L185.97619047619048,277.1L191.84920634920633,277.1L197.72222222222223,277.1L203.59523809523807,277.1L209.46825396825398,277.1L215.34126984126982,277.1L221.21428571428572,277.1L227.08730158730157,277.1L232.96031746031747,277.1L238.83333333333331,277.1L244.7063492063492,277.1L250.57936507936506,277.1L256.45238095238096,277.1L262.3253968253968,277.1L268.19841269841265,277.1L274.07142857142856,277.1L279.94444444444446,277.1L285.8174603174603,277.1L291.69047619047615,277.1L297.56349206349205,277.1L303.43650793650795,277.1L309.3095238095238,277.1L315.18253968253964,277.1L321.05555555555554,277.1L326.92857142857144,277.1L332.8015873015873,277.1L338.67460317460313,277.1L344.54761904761904,277.1L350.42063492063494,277.1L356.2936507936508,277.1L362.16666666666663,277.1L368.03968253968253,277.1L373.91269841269843,277.1L379.7857142857142,277.1L385.6587301587301,277.1L391.531746031746,277.1L397.4047619047619,277.1L403.2777777777777,277.1L409.1507936507936,277.1L415.0238095238095,277.1L420.8968253968254,277.1L426.7698412698412,277.1L432.6428571428571,277.1L438.515873015873,277.1L444.3888888888889,277.1L450.2619047619047,277.1L456.1349206349206,277.1L462.0079365079365,277.1L467.8809523809524,277.1L473.7539682539682,277.1L479.6269841269841,277.1L485.5,277.1" stroke="#dc3912" stroke-width="3" fill-opacity="1" fill="none"></path></g></g><g><circle cx="115.5" cy="312.5" r="4.5" stroke="none" stroke-width="0" fill="#3366cc"></circle><circle cx="121.37301587301587" cy="309.5" r="4.5" stroke="none" stroke-width="0" fill="#3366cc"></circle><circle cx="127.24603174603175" cy="306.5" r="4.5" stroke="none" stroke-width="0" fill="#3366cc"></circle><circle cx="133.11904761904762" cy="303.5" r="4.5" stroke="none" stroke-width="0" fill="#3366cc"></circle><circle cx="138.9920634920635" cy="300.5" r="4.5" stroke="none" stroke-width="0" fill="#3366cc"></circle><circle cx="144.86507936507937" cy="297.5" r="4.5" stroke="none" stroke-width="0" fill="#3366cc"></circle><circle cx="150.73809523809524" cy="294.5" r="4.5" stroke="none" stroke-width="0" fill="#3366cc"></circle><circle cx="156.61111111111111" cy="291.5" r="4.5" stroke="none" stroke-width="0" fill="#3366cc"></circle><circle cx="162.484126984127" cy="288.5" r="4.5" stroke="none" stroke-width="0" fill="#3366cc"></circle><circle cx="168.35714285714286" cy="285.5" r="4.5" stroke="none" stroke-width="0" fill="#3366cc"></circle><circle cx="174.23015873015873" cy="282.5" r="4.5" stroke="none" stroke-width="0" fill="#3366cc"></circle><circle cx="180.10317460317458" cy="279.5" r="4.5" stroke="none" stroke-width="0" fill="#3366cc"></circle><circle cx="185.97619047619048" cy="276.5" r="4.5" stroke="none" stroke-width="0" fill="#3366cc"></circle><circle cx="191.84920634920633" cy="273.5" r="4.5" stroke="none" stroke-width="0" fill="#3366cc"></circle><circle cx="197.72222222222223" cy="270.5" r="4.5" stroke="none" stroke-width="0" fill="#3366cc"></circle><circle cx="203.59523809523807" cy="267.5" r="4.5" stroke="none" stroke-width="0" fill="#3366cc"></circle><circle cx="209.46825396825398" cy="264.5" r="4.5" stroke="none" stroke-width="0" fill="#3366cc"></circle><circle cx="215.34126984126982" cy="261.5" r="4.5" stroke="none" stroke-width="0" fill="#3366cc"></circle><circle cx="221.21428571428572" cy="258.5" r="4.5" stroke="none" stroke-width="0" fill="#3366cc"></circle><circle cx="227.08730158730157" cy="255.5" r="4.5" stroke="none" stroke-width="0" fill="#3366cc"></circle><circle cx="232.96031746031747" cy="252.5" r="4.5" stroke="none" stroke-width="0" fill="#3366cc"></circle><circle cx="238.83333333333331" cy="249.5" r="4.5" stroke="none" stroke-width="0" fill="#3366cc"></circle><circle cx="244.7063492063492" cy="246.5" r="4.5" stroke="none" stroke-width="0" fill="#3366cc"></circle><circle cx="250.57936507936506" cy="243.5" r="4.5" stroke="none" stroke-width="0" fill="#3366cc"></circle><circle cx="256.45238095238096" cy="240.5" r="4.5" stroke="none" stroke-width="0" fill="#3366cc"></circle><circle cx="262.3253968253968" cy="237.5" r="4.5" stroke="none" stroke-width="0" fill="#3366cc"></circle><circle cx="268.19841269841265" cy="234.5" r="4.5" stroke="none" stroke-width="0" fill="#3366cc"></circle><circle cx="274.07142857142856" cy="231.5" r="4.5" stroke="none" stroke-width="0" fill="#3366cc"></circle><circle cx="279.94444444444446" cy="228.5" r="4.5" stroke="none" stroke-width="0" fill="#3366cc"></circle><circle cx="285.8174603174603" cy="225.5" r="4.5" stroke="none" stroke-width="0" fill="#3366cc"></circle><circle cx="291.69047619047615" cy="222.5" r="4.5" stroke="none" stroke-width="0" fill="#3366cc"></circle><circle cx="297.56349206349205" cy="219.5" r="4.5" stroke="none" stroke-width="0" fill="#3366cc"></circle><circle cx="303.43650793650795" cy="216.5" r="4.5" stroke="none" stroke-width="0" fill="#3366cc"></circle><circle cx="309.3095238095238" cy="213.5" r="4.5" stroke="none" stroke-width="0" fill="#3366cc"></circle><circle cx="315.18253968253964" cy="210.5" r="4.5" stroke="none" stroke-width="0" fill="#3366cc"></circle><circle cx="321.05555555555554" cy="207.5" r="4.5" stroke="none" stroke-width="0" fill="#3366cc"></circle><circle cx="326.92857142857144" cy="204.5" r="4.5" stroke="none" stroke-width="0" fill="#3366cc"></circle><circle cx="332.8015873015873" cy="201.5" r="4.5" stroke="none" stroke-width="0" fill="#3366cc"></circle><circle cx="338.67460317460313" cy="198.5" r="4.5" stroke="none" stroke-width="0" fill="#3366cc"></circle><circle cx="344.54761904761904" cy="195.5" r="4.5" stroke="none" stroke-width="0" fill="#3366cc"></circle><circle cx="350.42063492063494" cy="192.5" r="4.5" stroke="none" stroke-width="0" fill="#3366cc"></circle><circle cx="356.2936507936508" cy="189.5" r="4.5" stroke="none" stroke-width="0" fill="#3366cc"></circle><circle cx="362.16666666666663" cy="186.5" r="4.5" stroke="none" stroke-width="0" fill="#3366cc"></circle><circle cx="368.03968253968253" cy="183.5" r="4.5" stroke="none" stroke-width="0" fill="#3366cc"></circle><circle cx="373.91269841269843" cy="180.5" r="4.5" stroke="none" stroke-width="0" fill="#3366cc"></circle><circle cx="379.7857142857142" cy="177.5" r="4.5" stroke="none" stroke-width="0" fill="#3366cc"></circle><circle cx="385.6587301587301" cy="174.5" r="4.5" stroke="none" stroke-width="0" fill="#3366cc"></circle><circle cx="391.531746031746" cy="171.5" r="4.5" stroke="none" stroke-width="0" fill="#3366cc"></circle><circle cx="397.4047619047619" cy="168.5" r="4.5" stroke="none" stroke-width="0" fill="#3366cc"></circle><circle cx="403.2777777777777" cy="165.5" r="4.5" stroke="none" stroke-width="0" fill="#3366cc"></circle><circle cx="409.1507936507936" cy="162.5" r="4.5" stroke="none" stroke-width="0" fill="#3366cc"></circle><circle cx="415.0238095238095" cy="159.5" r="4.5" stroke="none" stroke-width="0" fill="#3366cc"></circle><circle cx="420.8968253968254" cy="156.5" r="4.5" stroke="none" stroke-width="0" fill="#3366cc"></circle><circle cx="426.7698412698412" cy="153.5" r="4.5" stroke="none" stroke-width="0" fill="#3366cc"></circle><circle cx="432.6428571428571" cy="150.5" r="4.5" stroke="none" stroke-width="0" fill="#3366cc"></circle><circle cx="438.515873015873" cy="147.5" r="4.5" stroke="none" stroke-width="0" fill="#3366cc"></circle><circle cx="444.3888888888889" cy="144.5" r="4.5" stroke="none" stroke-width="0" fill="#3366cc"></circle><circle cx="450.2619047619047" cy="141.5" r="4.5" stroke="none" stroke-width="0" fill="#3366cc"></circle><circle cx="456.1349206349206" cy="138.5" r="4.5" stroke="none" stroke-width="0" fill="#3366cc"></circle><circle cx="462.0079365079365" cy="135.5" r="4.5" stroke="none" stroke-width="0" fill="#3366cc"></circle><circle cx="467.8809523809524" cy="132.5" r="4.5" stroke="none" stroke-width="0" fill="#3366cc"></circle><circle cx="473.7539682539682" cy="129.5" r="4.5" stroke="none" stroke-width="0" fill="#3366cc"></circle><circle cx="479.6269841269841" cy="126.5" r="4.5" stroke="none" stroke-width="0" fill="#3366cc"></circle><circle cx="485.5" cy="123.5" r="4.5" stroke="none" stroke-width="0" fill="#3366cc"></circle><circle cx="115.5" cy="277.1" r="4.5" stroke="none" stroke-width="0" fill="#dc3912"></circle><circle cx="121.37301587301587" cy="277.1" r="4.5" stroke="none" stroke-width="0" fill="#dc3912"></circle><circle cx="127.24603174603175" cy="277.1" r="4.5" stroke="none" stroke-width="0" fill="#dc3912"></circle><circle cx="133.11904761904762" cy="277.1" r="4.5" stroke="none" stroke-width="0" fill="#dc3912"></circle><circle cx="138.9920634920635" cy="277.1" r="4.5" stroke="none" stroke-width="0" fill="#dc3912"></circle><circle cx="144.86507936507937" cy="277.1" r="4.5" stroke="none" stroke-width="0" fill="#dc3912"></circle><circle cx="150.73809523809524" cy="277.1" r="4.5" stroke="none" stroke-width="0" fill="#dc3912"></circle><circle cx="156.61111111111111" cy="277.1" r="4.5" stroke="none" stroke-width="0" fill="#dc3912"></circle><circle cx="162.484126984127" cy="277.1" r="4.5" stroke="none" stroke-width="0" fill="#dc3912"></circle><circle cx="168.35714285714286" cy="277.1" r="4.5" stroke="none" stroke-width="0" fill="#dc3912"></circle><circle cx="174.23015873015873" cy="277.1" r="4.5" stroke="none" stroke-width="0" fill="#dc3912"></circle><circle cx="180.10317460317458" cy="277.1" r="4.5" stroke="none" stroke-width="0" fill="#dc3912"></circle><circle cx="185.97619047619048" cy="277.1" r="4.5" stroke="none" stroke-width="0" fill="#dc3912"></circle><circle cx="191.84920634920633" cy="277.1" r="4.5" stroke="none" stroke-width="0" fill="#dc3912"></circle><circle cx="197.72222222222223" cy="277.1" r="4.5" stroke="none" stroke-width="0" fill="#dc3912"></circle><circle cx="203.59523809523807" cy="277.1" r="4.5" stroke="none" stroke-width="0" fill="#dc3912"></circle><circle cx="209.46825396825398" cy="277.1" r="4.5" stroke="none" stroke-width="0" fill="#dc3912"></circle><circle cx="215.34126984126982" cy="277.1" r="4.5" stroke="none" stroke-width="0" fill="#dc3912"></circle><circle cx="221.21428571428572" cy="277.1" r="4.5" stroke="none" stroke-width="0" fill="#dc3912"></circle><circle cx="227.08730158730157" cy="277.1" r="4.5" stroke="none" stroke-width="0" fill="#dc3912"></circle><circle cx="232.96031746031747" cy="277.1" r="4.5" stroke="none" stroke-width="0" fill="#dc3912"></circle><circle cx="238.83333333333331" cy="277.1" r="4.5" stroke="none" stroke-width="0" fill="#dc3912"></circle><circle cx="244.7063492063492" cy="277.1" r="4.5" stroke="none" stroke-width="0" fill="#dc3912"></circle><circle cx="250.57936507936506" cy="277.1" r="4.5" stroke="none" stroke-width="0" fill="#dc3912"></circle><circle cx="256.45238095238096" cy="277.1" r="4.5" stroke="none" stroke-width="0" fill="#dc3912"></circle><circle cx="262.3253968253968" cy="277.1" r="4.5" stroke="none" stroke-width="0" fill="#dc3912"></circle><circle cx="268.19841269841265" cy="277.1" r="4.5" stroke="none" stroke-width="0" fill="#dc3912"></circle><circle cx="274.07142857142856" cy="277.1" r="4.5" stroke="none" stroke-width="0" fill="#dc3912"></circle><circle cx="279.94444444444446" cy="277.1" r="4.5" stroke="none" stroke-width="0" fill="#dc3912"></circle><circle cx="285.8174603174603" cy="277.1" r="4.5" stroke="none" stroke-width="0" fill="#dc3912"></circle><circle cx="291.69047619047615" cy="277.1" r="4.5" stroke="none" stroke-width="0" fill="#dc3912"></circle><circle cx="297.56349206349205" cy="277.1" r="4.5" stroke="none" stroke-width="0" fill="#dc3912"></circle><circle cx="303.43650793650795" cy="277.1" r="4.5" stroke="none" stroke-width="0" fill="#dc3912"></circle><circle cx="309.3095238095238" cy="277.1" r="4.5" stroke="none" stroke-width="0" fill="#dc3912"></circle><circle cx="315.18253968253964" cy="277.1" r="4.5" stroke="none" stroke-width="0" fill="#dc3912"></circle><circle cx="321.05555555555554" cy="277.1" r="4.5" stroke="none" stroke-width="0" fill="#dc3912"></circle><circle cx="326.92857142857144" cy="277.1" r="4.5" stroke="none" stroke-width="0" fill="#dc3912"></circle><circle cx="332.8015873015873" cy="277.1" r="4.5" stroke="none" stroke-width="0" fill="#dc3912"></circle><circle cx="338.67460317460313" cy="277.1" r="4.5" stroke="none" stroke-width="0" fill="#dc3912"></circle><circle cx="344.54761904761904" cy="277.1" r="4.5" stroke="none" stroke-width="0" fill="#dc3912"></circle><circle cx="350.42063492063494" cy="277.1" r="4.5" stroke="none" stroke-width="0" fill="#dc3912"></circle><circle cx="356.2936507936508" cy="277.1" r="4.5" stroke="none" stroke-width="0" fill="#dc3912"></circle><circle cx="362.16666666666663" cy="277.1" r="4.5" stroke="none" stroke-width="0" fill="#dc3912"></circle><circle cx="368.03968253968253" cy="277.1" r="4.5" stroke="none" stroke-width="0" fill="#dc3912"></circle><circle cx="373.91269841269843" cy="277.1" r="4.5" stroke="none" stroke-width="0" fill="#dc3912"></circle><circle cx="379.7857142857142" cy="277.1" r="4.5" stroke="none" stroke-width="0" fill="#dc3912"></circle><circle cx="385.6587301587301" cy="277.1" r="4.5" stroke="none" stroke-width="0" fill="#dc3912"></circle><circle cx="391.531746031746" cy="277.1" r="4.5" stroke="none" stroke-width="0" fill="#dc3912"></circle><circle cx="397.4047619047619" cy="277.1" r="4.5" stroke="none" stroke-width="0" fill="#dc3912"></circle><circle cx="403.2777777777777" cy="277.1" r="4.5" stroke="none" stroke-width="0" fill="#dc3912"></circle><circle cx="409.1507936507936" cy="277.1" r="4.5" stroke="none" stroke-width="0" fill="#dc3912"></circle><circle cx="415.0238095238095" cy="277.1" r="4.5" stroke="none" stroke-width="0" fill="#dc3912"></circle><circle cx="420.8968253968254" cy="277.1" r="4.5" stroke="none" stroke-width="0" fill="#dc3912"></circle><circle cx="426.7698412698412" cy="277.1" r="4.5" stroke="none" stroke-width="0" fill="#dc3912"></circle><circle cx="432.6428571428571" cy="277.1" r="4.5" stroke="none" stroke-width="0" fill="#dc3912"></circle><circle cx="438.515873015873" cy="277.1" r="4.5" stroke="none" stroke-width="0" fill="#dc3912"></circle><circle cx="444.3888888888889" cy="277.1" r="4.5" stroke="none" stroke-width="0" fill="#dc3912"></circle><circle cx="450.2619047619047" cy="277.1" r="4.5" stroke="none" stroke-width="0" fill="#dc3912"></circle><circle cx="456.1349206349206" cy="277.1" r="4.5" stroke="none" stroke-width="0" fill="#dc3912"></circle><circle cx="462.0079365079365" cy="277.1" r="4.5" stroke="none" stroke-width="0" fill="#dc3912"></circle><circle cx="467.8809523809524" cy="277.1" r="4.5" stroke="none" stroke-width="0" fill="#dc3912"></circle><circle cx="473.7539682539682" cy="277.1" r="4.5" stroke="none" stroke-width="0" fill="#dc3912"></circle><circle cx="479.6269841269841" cy="277.1" r="4.5" stroke="none" stroke-width="0" fill="#dc3912"></circle><circle cx="485.5" cy="277.1" r="4.5" stroke="none" stroke-width="0" fill="#dc3912"></circle></g><g><g><text text-anchor="middle" x="227.0873" y="335.05" font-family="Arial" font-size="13" stroke="none" stroke-width="0" fill="#444444">20</text></g><g><text text-anchor="middle" x="344.5476" y="335.05" font-family="Arial" font-size="13" stroke="none" stroke-width="0" fill="#444444">40</text></g><g><text text-anchor="middle" x="462.0079" y="335.05" font-family="Arial" font-size="13" stroke="none" stroke-width="0" fill="#444444">60</text></g><g><text text-anchor="end" x="102" y="320.05" font-family="Arial" font-size="13" stroke="none" stroke-width="0" fill="#444444">0</text></g><g><text text-anchor="end" x="102" y="260.05" font-family="Arial" font-size="13" stroke="none" stroke-width="0" fill="#444444">100</text></g><g><text text-anchor="end" x="102" y="200.05" font-family="Arial" font-size="13" stroke="none" stroke-width="0" fill="#444444">200</text></g><g><text text-anchor="end" x="102" y="140.05" font-family="Arial" font-size="13" stroke="none" stroke-width="0" fill="#444444">300</text></g><g><text text-anchor="end" x="102" y="80.05" font-family="Arial" font-size="13" stroke="none" stroke-width="0" fill="#444444">400</text></g></g></g><g><g><text text-anchor="middle" x="300.5" y="368.05" font-family="Arial" font-size="13" font-style="italic" stroke="none" stroke-width="0" fill="#222222">Number of values entered</text><rect x="115" y="357" width="371" height="13" stroke="none" stroke-width="0" fill-opacity="0" fill="#ffffff"></rect></g><g><text text-anchor="middle" x="44.55" y="195.5" font-family="Arial" font-size="13" font-style="italic" transform="rotate(-90 44.55 195.5)" stroke="none" stroke-width="0" fill="#222222">Memory Used (bytes)</text><path d="M33.49999999999999,316L33.50000000000001,75L46.50000000000001,75L46.49999999999999,316Z" stroke="none" stroke-width="0" fill-opacity="0" fill="#ffffff"></path></g></g><g></g></svg>